<svg width="119" height="84" viewBox="0 0 119 84" fill="none" xmlns="http://www.w3.org/2000/svg">
<path d="M8.568 78.24C7.176 78.24 5.968 78.008 4.944 77.544C3.92 77.064 3.128 76.336 2.568 75.36C2.008 74.368 1.728 73.104 1.728 71.568V61.8C1.728 61.624 1.784 61.48 1.896 61.368C2.008 61.256 2.144 61.2 2.304 61.2H4.488C4.664 61.2 4.8 61.256 4.896 61.368C5.008 61.48 5.064 61.624 5.064 61.8V71.568C5.064 72.88 5.376 73.856 6 74.496C6.624 75.12 7.48 75.432 8.568 75.432C9.656 75.432 10.504 75.12 11.112 74.496C11.736 73.856 12.048 72.88 12.048 71.568V61.8C12.048 61.624 12.104 61.48 12.216 61.368C12.328 61.256 12.472 61.2 12.648 61.2H14.808C14.984 61.2 15.12 61.256 15.216 61.368C15.328 61.48 15.384 61.624 15.384 61.8V71.568C15.384 73.104 15.104 74.368 14.544 75.36C14 76.336 13.216 77.064 12.192 77.544C11.184 78.008 9.976 78.24 8.568 78.24ZM19.5574 78C19.3974 78 19.2614 77.944 19.1494 77.832C19.0374 77.72 18.9814 77.584 18.9814 77.424V61.8C18.9814 61.624 19.0374 61.48 19.1494 61.368C19.2614 61.256 19.3974 61.2 19.5574 61.2H21.4054C21.6294 61.2 21.7894 61.256 21.8854 61.368C21.9974 61.464 22.0694 61.536 22.1014 61.584L29.0134 72.336V61.8C29.0134 61.624 29.0614 61.48 29.1574 61.368C29.2694 61.256 29.4134 61.2 29.5894 61.2H31.6054C31.7814 61.2 31.9254 61.256 32.0374 61.368C32.1494 61.48 32.2054 61.624 32.2054 61.8V77.4C32.2054 77.576 32.1494 77.72 32.0374 77.832C31.9254 77.944 31.7894 78 31.6294 78H29.7574C29.5334 78 29.3734 77.944 29.2774 77.832C29.1814 77.72 29.1094 77.648 29.0614 77.616L22.1734 67.104V77.424C22.1734 77.584 22.1174 77.72 22.0054 77.832C21.8934 77.944 21.7494 78 21.5734 78H19.5574ZM36.5261 78C36.3661 78 36.2301 77.944 36.1181 77.832C36.0061 77.72 35.9501 77.584 35.9501 77.424V61.776C35.9501 61.616 36.0061 61.48 36.1181 61.368C36.2301 61.256 36.3661 61.2 36.5261 61.2H38.7821C38.9581 61.2 39.0941 61.256 39.1901 61.368C39.3021 61.48 39.3581 61.616 39.3581 61.776V77.424C39.3581 77.584 39.3021 77.72 39.1901 77.832C39.0941 77.944 38.9581 78 38.7821 78H36.5261ZM44.058 78C43.898 78 43.762 77.952 43.65 77.856C43.554 77.76 43.506 77.632 43.506 77.472V61.752C43.506 61.576 43.554 61.44 43.65 61.344C43.762 61.248 43.898 61.2 44.058 61.2H44.658C44.818 61.2 44.938 61.24 45.018 61.32C45.098 61.4 45.146 61.464 45.162 61.512L50.61 72.12L56.082 61.512C56.114 61.464 56.162 61.4 56.226 61.32C56.306 61.24 56.426 61.2 56.586 61.2H57.162C57.338 61.2 57.474 61.248 57.57 61.344C57.666 61.44 57.714 61.576 57.714 61.752V77.472C57.714 77.632 57.666 77.76 57.57 77.856C57.474 77.952 57.338 78 57.162 78H56.73C56.57 78 56.442 77.952 56.346 77.856C56.25 77.76 56.202 77.632 56.202 77.472V64.464L51.618 73.488C51.554 73.648 51.458 73.768 51.33 73.848C51.218 73.928 51.066 73.968 50.874 73.968H50.346C50.154 73.968 50.002 73.928 49.89 73.848C49.778 73.768 49.682 73.648 49.602 73.488L45.018 64.464V77.472C45.018 77.632 44.97 77.76 44.874 77.856C44.778 77.952 44.65 78 44.49 78H44.058ZM62.7606 78C62.6006 78 62.4726 77.952 62.3766 77.856C62.2806 77.76 62.2326 77.632 62.2326 77.472V61.752C62.2326 61.576 62.2806 61.44 62.3766 61.344C62.4726 61.248 62.6006 61.2 62.7606 61.2H68.5926C69.7126 61.2 70.6806 61.392 71.4966 61.776C72.3286 62.144 72.9686 62.696 73.4166 63.432C73.8806 64.168 74.1126 65.08 74.1126 66.168C74.1126 67.256 73.8806 68.168 73.4166 68.904C72.9686 69.64 72.3286 70.2 71.4966 70.584C70.6806 70.952 69.7126 71.136 68.5926 71.136H63.7446V77.472C63.7446 77.632 63.6966 77.76 63.6006 77.856C63.5046 77.952 63.3686 78 63.1926 78H62.7606ZM63.7446 69.696H68.4726C69.8646 69.696 70.8966 69.392 71.5686 68.784C72.2566 68.176 72.6006 67.304 72.6006 66.168C72.6006 65.032 72.2566 64.16 71.5686 63.552C70.8966 62.944 69.8646 62.64 68.4726 62.64H63.7446V69.696ZM75.2123 78C75.0843 78 74.9723 77.952 74.8763 77.856C74.7803 77.76 74.7323 77.648 74.7323 77.52C74.7323 77.44 74.7483 77.352 74.7803 77.256L80.8523 61.68C80.9163 61.52 80.9963 61.4 81.0923 61.32C81.2043 61.24 81.3563 61.2 81.5483 61.2H82.3643C82.5563 61.2 82.7003 61.24 82.7963 61.32C82.9083 61.4 82.9963 61.52 83.0603 61.68L89.1323 77.256C89.1643 77.352 89.1803 77.44 89.1803 77.52C89.1803 77.648 89.1323 77.76 89.0363 77.856C88.9403 77.952 88.8283 78 88.7003 78H88.2203C88.0603 78 87.9403 77.96 87.8603 77.88C87.7803 77.784 87.7243 77.704 87.6923 77.64L86.2043 73.8H77.7083L76.2203 77.64C76.2043 77.704 76.1483 77.784 76.0523 77.88C75.9723 77.96 75.8523 78 75.6923 78H75.2123ZM78.2843 72.36H85.6283L81.9563 62.904L78.2843 72.36ZM97.4284 78.24C95.9724 78.24 94.7804 77.96 93.8524 77.4C92.9404 76.824 92.2604 76.048 91.8124 75.072C91.3644 74.096 91.1164 72.984 91.0684 71.736C91.0524 71.08 91.0444 70.376 91.0444 69.624C91.0444 68.872 91.0524 68.152 91.0684 67.464C91.1164 66.216 91.3644 65.104 91.8124 64.128C92.2604 63.136 92.9404 62.36 93.8524 61.8C94.7804 61.24 95.9724 60.96 97.4284 60.96C98.5644 60.96 99.5324 61.12 100.332 61.44C101.132 61.76 101.78 62.184 102.276 62.712C102.788 63.224 103.164 63.784 103.404 64.392C103.66 64.984 103.804 65.568 103.836 66.144C103.852 66.288 103.804 66.408 103.692 66.504C103.596 66.584 103.476 66.624 103.332 66.624H102.852C102.724 66.624 102.612 66.592 102.516 66.528C102.42 66.448 102.356 66.312 102.324 66.12C102.02 64.696 101.444 63.72 100.596 63.192C99.7644 62.664 98.7084 62.4 97.4284 62.4C95.9724 62.4 94.8124 62.816 93.9484 63.648C93.1004 64.464 92.6444 65.776 92.5804 67.584C92.5324 68.896 92.5324 70.24 92.5804 71.616C92.6444 73.424 93.1004 74.744 93.9484 75.576C94.8124 76.392 95.9724 76.8 97.4284 76.8C98.7084 76.8 99.7644 76.536 100.596 76.008C101.444 75.48 102.02 74.504 102.324 73.08C102.356 72.888 102.42 72.76 102.516 72.696C102.612 72.616 102.724 72.576 102.852 72.576H103.332C103.476 72.576 103.596 72.624 103.692 72.72C103.804 72.8 103.852 72.912 103.836 73.056C103.804 73.632 103.66 74.224 103.404 74.832C103.164 75.424 102.788 75.984 102.276 76.512C101.78 77.024 101.132 77.44 100.332 77.76C99.5324 78.08 98.5644 78.24 97.4284 78.24ZM111.573 78C111.413 78 111.285 77.952 111.189 77.856C111.093 77.76 111.045 77.632 111.045 77.472V62.64H106.293C106.133 62.64 106.005 62.592 105.909 62.496C105.813 62.4 105.765 62.272 105.765 62.112V61.752C105.765 61.576 105.813 61.44 105.909 61.344C106.005 61.248 106.133 61.2 106.293 61.2H117.285C117.461 61.2 117.597 61.248 117.693 61.344C117.789 61.44 117.837 61.576 117.837 61.752V62.112C117.837 62.272 117.789 62.4 117.693 62.496C117.597 62.592 117.461 62.64 117.285 62.64H112.557V77.472C112.557 77.632 112.509 77.76 112.413 77.856C112.317 77.952 112.181 78 112.005 78H111.573Z" fill="#8453B3"/>
<path d="M54.4033 7.65106V15.5517C54.4034 15.5813 54.4112 15.6104 54.426 15.6361C54.4409 15.6617 54.4622 15.683 54.4879 15.6978L61.3296 19.6481C61.3553 19.6628 61.3844 19.6705 61.4141 19.6705C61.4437 19.6705 61.4728 19.6628 61.4986 19.6481L68.3413 15.6978C68.3667 15.6828 68.3879 15.6614 68.4027 15.6358C68.4175 15.6102 68.4255 15.5813 68.4258 15.5517V7.65106C68.4256 7.62132 68.4178 7.59212 68.403 7.56633C68.3881 7.54054 68.3669 7.51903 68.3413 7.5039L61.4986 3.55359C61.4728 3.53895 61.4437 3.53125 61.4141 3.53125C61.3844 3.53125 61.3553 3.53895 61.3296 3.55359L54.4839 7.5039C54.4589 7.51937 54.4383 7.54106 54.4242 7.56686C54.4101 7.59265 54.4029 7.62166 54.4033 7.65106V7.65106Z" stroke="#7243A8" stroke-miterlimit="10"/>
<path d="M50.0225 5.1188V13.0204C50.0223 13.0501 50.03 13.0793 50.0449 13.105C50.0597 13.1306 50.0812 13.1519 50.107 13.1666L56.9487 17.1169C56.9745 17.132 57.0038 17.14 57.0337 17.14C57.0636 17.14 57.0929 17.132 57.1187 17.1169L63.9604 13.1666C63.9862 13.1519 64.0076 13.1306 64.0225 13.105C64.0373 13.0793 64.0451 13.0501 64.0449 13.0204V5.1188C64.0451 5.08912 64.0373 5.05994 64.0225 5.03425C64.0076 5.00857 63.9862 4.9873 63.9604 4.97264L57.1187 1.02233C57.0928 1.00769 57.0635 1 57.0337 1C57.0039 1 56.9746 1.00769 56.9487 1.02233L50.109 4.97264C50.0828 4.98704 50.061 5.0082 50.0458 5.0339C50.0305 5.05961 50.0225 5.08893 50.0225 5.1188V5.1188Z" stroke="#7243A8" stroke-miterlimit="10"/>
<path d="M68.4258 15.705V23.6057C68.4256 23.6353 68.4334 23.6645 68.4482 23.6902C68.4631 23.7159 68.4845 23.7372 68.5103 23.7518L75.352 27.7021C75.3778 27.7168 75.4069 27.7245 75.4365 27.7245C75.4661 27.7245 75.4953 27.7168 75.521 27.7021L82.3637 23.7518C82.3894 23.737 82.4107 23.7157 82.4255 23.69C82.4404 23.6644 82.4482 23.6353 82.4482 23.6057V15.705C82.4482 15.6754 82.4404 15.6463 82.4255 15.6207C82.4107 15.595 82.3894 15.5737 82.3637 15.5589L75.521 11.6086C75.4954 11.5934 75.4663 11.5854 75.4365 11.5854C75.4068 11.5854 75.3776 11.5934 75.352 11.6086L68.5103 15.5589C68.4845 15.5735 68.4631 15.5948 68.4482 15.6205C68.4334 15.6462 68.4256 15.6754 68.4258 15.705V15.705Z" stroke="#7243A8" stroke-miterlimit="10"/>
<path d="M64.0449 13.1725V21.0741C64.0449 21.1039 64.0527 21.1332 64.0675 21.159C64.0823 21.1848 64.1037 21.2063 64.1294 21.2213L70.9711 25.1716C70.9969 25.1862 71.026 25.1939 71.0557 25.1939C71.0853 25.1939 71.1144 25.1862 71.1402 25.1716L77.9829 21.2213C78.0085 21.2062 78.0297 21.1847 78.0445 21.1589C78.0593 21.1331 78.0672 21.1039 78.0674 21.0741V13.1725C78.067 13.143 78.0591 13.114 78.0443 13.0884C78.0295 13.0628 78.0083 13.0414 77.9829 13.0264L71.1402 9.07605C71.1144 9.06141 71.0853 9.05371 71.0557 9.05371C71.026 9.05371 70.9969 9.06141 70.9711 9.07605L64.1284 13.0264C64.103 13.0413 64.0818 13.0627 64.0672 13.0883C64.0525 13.114 64.0449 13.143 64.0449 13.1725V13.1725Z" stroke="#7243A8" stroke-miterlimit="10"/>
<path d="M40.3809 15.7765V23.6772C40.3809 23.7068 40.3887 23.7359 40.4036 23.7616C40.4184 23.7872 40.4397 23.8085 40.4654 23.8233L47.3071 27.7736C47.3328 27.7883 47.362 27.796 47.3916 27.796C47.4212 27.796 47.4503 27.7883 47.4761 27.7736L54.3188 23.8233C54.3443 23.8083 54.3654 23.7869 54.3802 23.7613C54.395 23.7357 54.403 23.7067 54.4033 23.6772V15.7765C54.4032 15.7468 54.3953 15.7176 54.3805 15.6918C54.3657 15.666 54.3444 15.6445 54.3188 15.6294L47.4761 11.6791C47.4503 11.6644 47.4212 11.6567 47.3916 11.6567C47.362 11.6567 47.3328 11.6644 47.3071 11.6791L40.4644 15.6294C40.4388 15.6445 40.4177 15.666 40.403 15.6918C40.3884 15.7177 40.3807 15.7469 40.3809 15.7765V15.7765Z" stroke="#7243A8" stroke-miterlimit="10"/>
<path d="M36 13.2443V21.1449C36.0005 21.1751 36.0091 21.2045 36.0248 21.2302C36.0406 21.2559 36.0629 21.2769 36.0895 21.2911L42.9322 25.2414C42.9578 25.2565 42.987 25.2645 43.0167 25.2645C43.0464 25.2645 43.0756 25.2565 43.1012 25.2414L49.9429 21.2911C49.9687 21.2764 49.9901 21.2552 50.005 21.2295C50.0199 21.2038 50.0276 21.1746 50.0274 21.1449V13.2443C50.0276 13.2146 50.0199 13.1854 50.005 13.1598C49.9901 13.1341 49.9687 13.1128 49.9429 13.0981L43.0962 9.14783C43.0705 9.13319 43.0414 9.12549 43.0117 9.12549C42.9821 9.12549 42.953 9.13319 42.9272 9.14783L36.0895 13.0981C36.0629 13.1123 36.0406 13.1333 36.0248 13.159C36.0091 13.1847 36.0005 13.2142 36 13.2443V13.2443Z" stroke="#7243A8" stroke-miterlimit="10"/>
<path d="M54.4034 23.8305V31.7311C54.4032 31.7608 54.4109 31.79 54.4258 31.8157C54.4406 31.8414 54.4621 31.8626 54.4879 31.8773L61.3296 35.8276C61.3552 35.8428 61.3844 35.8507 61.4141 35.8507C61.4438 35.8507 61.473 35.8428 61.4986 35.8276L68.3413 31.8773C68.367 31.8625 68.3883 31.8412 68.4031 31.8155C68.4179 31.7899 68.4258 31.7608 68.4258 31.7311V23.8305C68.4258 23.8009 68.4179 23.7718 68.4031 23.7461C68.3883 23.7205 68.367 23.6992 68.3413 23.6844L61.4986 19.7341C61.473 19.7189 61.4438 19.7109 61.4141 19.7109C61.3844 19.7109 61.3552 19.7189 61.3296 19.7341L54.4839 23.6844C54.4588 23.6995 54.4382 23.721 54.4241 23.7467C54.4099 23.7723 54.4028 23.8012 54.4034 23.8305V23.8305Z" stroke="#7243A8" stroke-miterlimit="10"/>
<path d="M50.0225 21.299V29.1986C50.0224 29.2284 50.0302 29.2577 50.045 29.2835C50.0599 29.3093 50.0812 29.3308 50.107 29.3458L56.9487 33.2961C56.9746 33.3107 57.0039 33.3184 57.0337 33.3184C57.0635 33.3184 57.0928 33.3107 57.1187 33.2961L63.9604 29.3458C63.9861 29.3308 64.0075 29.3093 64.0223 29.2835C64.0372 29.2577 64.045 29.2284 64.0449 29.1986V21.299C64.045 21.2692 64.0372 21.2399 64.0223 21.2141C64.0075 21.1883 63.9861 21.1668 63.9604 21.1518L57.1187 17.2015C57.0928 17.1869 57.0635 17.1792 57.0337 17.1792C57.0039 17.1792 56.9746 17.1869 56.9487 17.2015L50.109 21.1518C50.0829 21.1666 50.0611 21.1879 50.0459 21.2138C50.0307 21.2396 50.0226 21.269 50.0225 21.299V21.299Z" stroke="#7243A8" stroke-miterlimit="10"/>
<path d="M40.3809 31.9259V39.8266C40.3807 39.8562 40.3884 39.8854 40.4033 39.9111C40.4182 39.9368 40.4396 39.9581 40.4654 39.9727L47.3071 43.923C47.3327 43.9382 47.3619 43.9462 47.3916 43.9462C47.4213 43.9462 47.4505 43.9382 47.4761 43.923L54.3188 39.9727C54.3445 39.9579 54.3658 39.9366 54.3806 39.911C54.3955 39.8853 54.4033 39.8562 54.4033 39.8266V31.9259C54.4033 31.8963 54.3955 31.8672 54.3806 31.8416C54.3658 31.8159 54.3445 31.7946 54.3188 31.7798L47.4761 27.8295C47.4504 27.8148 47.4212 27.8071 47.3916 27.8071C47.362 27.8071 47.3328 27.8148 47.3071 27.8295L40.4644 31.7798C40.4388 31.7946 40.4175 31.8159 40.4029 31.8416C40.3882 31.8673 40.3806 31.8964 40.3809 31.9259V31.9259Z" stroke="#7243A8" stroke-miterlimit="10"/>
<path d="M36 29.3945V37.2951C36.0005 37.3252 36.0091 37.3547 36.0248 37.3804C36.0406 37.4061 36.0629 37.4271 36.0895 37.4413L42.9322 41.3916C42.9579 41.4062 42.9871 41.4139 43.0167 41.4139C43.0463 41.4139 43.0755 41.4062 43.1012 41.3916L49.9429 37.4413C49.9687 37.4266 49.9901 37.4053 50.005 37.3797C50.0199 37.354 50.0276 37.3248 50.0274 37.2951V29.3945C50.0276 29.3648 50.0199 29.3356 50.005 29.3099C49.9901 29.2843 49.9687 29.263 49.9429 29.2483L43.0962 25.298C43.0706 25.2829 43.0415 25.2749 43.0117 25.2749C42.982 25.2749 42.9528 25.2829 42.9272 25.298L36.0895 29.2483C36.0629 29.2625 36.0406 29.2835 36.0248 29.3092C36.0091 29.3349 36.0005 29.3644 36 29.3945V29.3945Z" stroke="#7243A8" stroke-miterlimit="10"/>
<path d="M54.4033 39.9806V47.8813C54.4034 47.9109 54.4112 47.94 54.426 47.9657C54.4409 47.9913 54.4622 48.0126 54.4879 48.0274L61.3296 51.9777C61.3553 51.9924 61.3844 52.0001 61.4141 52.0001C61.4437 52.0001 61.4728 51.9924 61.4986 51.9777L68.3413 48.0274C68.3667 48.0124 68.3879 47.991 68.4027 47.9654C68.4175 47.9398 68.4255 47.9108 68.4258 47.8813V39.9806C68.4256 39.9509 68.4178 39.9217 68.403 39.8959C68.3881 39.8701 68.3669 39.8486 68.3413 39.8335L61.4986 35.8832C61.4728 35.8685 61.4437 35.8608 61.4141 35.8608C61.3844 35.8608 61.3553 35.8685 61.3296 35.8832L54.4839 39.8335C54.4589 39.849 54.4383 39.8707 54.4242 39.8964C54.4101 39.9222 54.4029 39.9512 54.4033 39.9806V39.9806Z" stroke="#7243A8" stroke-miterlimit="10"/>
<path d="M50.0225 37.4482V45.3488C50.0223 45.3785 50.03 45.4077 50.0449 45.4333C50.0597 45.459 50.0812 45.4803 50.107 45.495L56.9487 49.4453C56.9745 49.4604 57.0038 49.4684 57.0337 49.4684C57.0636 49.4684 57.0929 49.4604 57.1187 49.4453L63.9604 45.495C63.9862 45.4803 64.0076 45.459 64.0225 45.4333C64.0373 45.4077 64.0451 45.3785 64.0449 45.3488V37.4482C64.0451 37.4185 64.0373 37.3893 64.0225 37.3636C64.0076 37.3379 63.9862 37.3167 63.9604 37.302L57.1187 33.3517C57.0929 33.3366 57.0636 33.3286 57.0337 33.3286C57.0038 33.3286 56.9745 33.3366 56.9487 33.3517L50.109 37.302C50.0828 37.3164 50.061 37.3376 50.0458 37.3633C50.0305 37.389 50.0225 37.4183 50.0225 37.4482V37.4482Z" stroke="#7243A8" stroke-miterlimit="10"/>
<path d="M68.4258 31.8781V39.7787C68.4257 39.8085 68.4335 39.8378 68.4484 39.8636C68.4632 39.8894 68.4846 39.9109 68.5103 39.9259L75.352 43.8762C75.3778 43.8908 75.4069 43.8985 75.4365 43.8985C75.4661 43.8985 75.4953 43.8908 75.521 43.8762L82.3637 39.9259C82.3893 39.9107 82.4106 39.8892 82.4254 39.8634C82.4402 39.8376 82.4481 39.8085 82.4482 39.7787V31.8781C82.4479 31.8485 82.44 31.8195 82.4251 31.7939C82.4103 31.7683 82.3892 31.747 82.3637 31.7319L75.521 27.7816C75.4953 27.767 75.4661 27.7593 75.4365 27.7593C75.4069 27.7593 75.3778 27.767 75.352 27.7816L68.5103 31.7319C68.4846 31.7467 68.4633 31.7681 68.4485 31.7937C68.4336 31.8194 68.4258 31.8485 68.4258 31.8781Z" stroke="#7243A8" stroke-miterlimit="10"/>
<path d="M64.0449 29.3466V37.2473C64.0448 37.2769 64.0525 37.3061 64.0674 37.3318C64.0822 37.3575 64.1036 37.3788 64.1294 37.3934L70.9711 41.3437C70.9967 41.3589 71.0259 41.3669 71.0557 41.3669C71.0854 41.3669 71.1146 41.3589 71.1402 41.3437L77.9829 37.3934C78.0085 37.3786 78.0299 37.3573 78.0447 37.3316C78.0595 37.306 78.0673 37.2769 78.0674 37.2473V29.3466C78.0673 29.317 78.0595 29.2879 78.0447 29.2622C78.0299 29.2366 78.0085 29.2153 77.9829 29.2005L71.1402 25.2502C71.1146 25.235 71.0854 25.2271 71.0557 25.2271C71.0259 25.2271 70.9967 25.235 70.9711 25.2502L64.1284 29.2005C64.1028 29.2153 64.0816 29.2366 64.0669 29.2623C64.0523 29.2879 64.0447 29.3171 64.0449 29.3466V29.3466Z" stroke="#7243A8" stroke-miterlimit="10"/>
<path opacity="0.85" d="M74.9251 27.8115L50.2598 13.5713V42.0517L74.9251 27.8115Z" fill="#8453B3"/>
</svg>
